<svg width="19" height="16" viewBox="0 0 19 16" fill="none" xmlns="http://www.w3.org/2000/svg">
<path d="M17.2727 14.2222H19V16H0V14.2222H1.72727V0.888889C1.72727 0.653141 1.81826 0.427048 1.98023 0.260349C2.14219 0.0936505 2.36186 0 2.59091 0H11.2273C11.4563 0 11.676 0.0936505 11.838 0.260349C11.9999 0.427048 12.0909 0.653141 12.0909 0.888889V14.2222H13.8182V5.33333H16.4091C16.6381 5.33333 16.8578 5.42698 17.0198 5.59368C17.1817 5.76038 17.2727 5.98647 17.2727 6.22222V14.2222ZM5.18182 7.11111V8.88889H8.63636V7.11111H5.18182ZM5.18182 3.55556V5.33333H8.63636V3.55556H5.18182Z" fill="#8892B0"/>
</svg>
