<svg xmlns="http://www.w3.org/2000/svg" width="17" height="18" fill="none"><path fill="#8892B0" d="M4.8.175a.592.592 0 0 1 .592.593v1.107h6.36v-1.1a.592.592 0 1 1 1.185 0v1.1h2.293a1.692 1.692 0 0 1 1.692 1.692v11.84a1.692 1.692 0 0 1-1.692 1.69H1.692A1.692 1.692 0 0 1 0 15.408V3.566a1.692 1.692 0 0 1 1.692-1.692h2.516V.767A.592.592 0 0 1 4.8.175Zm-3.615 6.55v8.681a.508.508 0 0 0 .507.508H15.23a.508.508 0 0 0 .508-.508V6.738L1.185 6.726Zm4.456 5.82v1.41h-1.41v-1.41h1.41Zm3.525 0v1.41h-1.41v-1.41h1.41Zm3.526 0v1.41h-1.41v-1.41h1.41ZM5.64 9.18v1.41h-1.41V9.18h1.41Zm3.525 0v1.41h-1.41V9.18h1.41Zm3.526 0v1.41h-1.41V9.18h1.41ZM4.208 3.059H1.692a.508.508 0 0 0-.507.508v1.975l14.553.012V3.567a.508.508 0 0 0-.508-.508h-2.293v.786a.592.592 0 1 1-1.184 0v-.786h-6.36v.778a.592.592 0 1 1-1.185 0V3.06Z"/></svg>