<svg xmlns="http://www.w3.org/2000/svg" width="53" height="51" fill="none"><path fill="#CCD6F6" d="M18.001 41.137c0 .207-.238.373-.538.373-.341.03-.58-.135-.58-.373 0-.207.239-.373.539-.373.31-.03.58.135.58.373Zm-3.219-.466c-.072.207.135.445.445.508.27.103.58 0 .642-.208.062-.206-.135-.445-.445-.538-.27-.072-.57.031-.642.238Zm4.575-.176c-.3.073-.507.27-.476.508.031.207.3.341.611.269.3-.073.507-.27.476-.477-.03-.196-.31-.33-.61-.3ZM26.17.828C11.81.828.829 11.728.829 26.086c0 11.48 7.225 21.303 17.545 24.76 1.325.239 1.79-.579 1.79-1.252 0-.642-.03-4.182-.03-6.355 0 0-7.246 1.552-8.768-3.085 0 0-1.18-3.013-2.878-3.789 0 0-2.37-1.625.166-1.594 0 0 2.577.207 3.996 2.67 2.267 3.996 6.066 2.847 7.546 2.164.238-1.656.91-2.805 1.656-3.488-5.786-.642-11.625-1.48-11.625-11.439 0-2.847.787-4.275 2.443-6.097-.269-.673-1.149-3.447.27-7.029 2.163-.672 7.142 2.795 7.142 2.795a24.32 24.32 0 0 1 6.5-.88c2.206 0 4.431.3 6.502.88 0 0 4.979-3.478 7.142-2.795 1.418 3.592.538 6.356.27 7.03 1.656 1.831 2.67 3.26 2.67 6.096 0 9.99-6.097 10.787-11.884 11.439.953.817 1.76 2.37 1.76 4.803 0 3.488-.03 7.805-.03 8.654 0 .672.475 1.49 1.79 1.252 10.352-3.437 17.37-13.26 17.37-24.74C52.172 11.728 40.526.828 26.169.828Zm-15.28 35.703c-.134.103-.103.341.073.538.166.166.404.238.539.103.134-.103.103-.341-.073-.538-.166-.165-.404-.238-.538-.103Zm-1.117-.839c-.073.135.03.3.238.404.166.103.373.072.445-.073.072-.134-.031-.3-.238-.403-.207-.062-.373-.031-.445.072Zm3.354 3.685c-.166.135-.104.445.134.642.238.238.539.27.673.104.135-.135.073-.445-.134-.642-.228-.238-.539-.27-.673-.104Zm-1.18-1.521c-.166.103-.166.372 0 .61.165.239.445.342.58.239.165-.135.165-.404 0-.642-.146-.238-.415-.342-.58-.207Z"/></svg>