<svg xmlns="http://www.w3.org/2000/svg" width="18" height="20" fill="none"><path fill="#CCD6F6" d="M2.25 17.714h3.375V12c0-.324.108-.595.324-.814.216-.218.483-.328.801-.329h4.5c.319 0 .586.11.802.33.216.219.324.49.323.813v5.714h3.375V7.43L9 2.286 2.25 7.429v10.285Zm-2.25 0V7.43A2.295 2.295 0 0 1 .9 5.6L7.65.457A2.146 2.146 0 0 1 9 0c.506 0 .956.152 1.35.457L17.1 5.6a2.285 2.285 0 0 1 .9 1.829v10.285a2.22 2.22 0 0 1-.662 1.615c-.44.448-.97.672-1.588.671h-4.5c-.319 0-.586-.11-.801-.33a1.12 1.12 0 0 1-.324-.813v-5.714h-2.25v5.714c0 .324-.108.596-.324.815-.216.22-.483.329-.801.328h-4.5a2.149 2.149 0 0 1-1.589-.67A2.223 2.223 0 0 1 0 17.713Z"/></svg>