<svg xmlns="http://www.w3.org/2000/svg" width="47" height="47" fill="none"><path fill="#CCD6F6" d="M23.51 11.596A11.875 11.875 0 0 0 11.616 23.49c0 6.583 5.31 11.894 11.894 11.894 6.584 0 11.894-5.31 11.894-11.894 0-6.584-5.31-11.894-11.894-11.894Zm0 19.626c-4.254 0-7.732-3.468-7.732-7.732 0-4.265 3.467-7.733 7.732-7.733 4.265 0 7.733 3.468 7.733 7.733s-3.478 7.732-7.733 7.732ZM38.665 11.11a2.768 2.768 0 0 1-2.774 2.774 2.768 2.768 0 0 1-2.774-2.774 2.774 2.774 0 0 1 5.548 0Zm7.877 2.816c-.175-3.716-1.024-7.008-3.747-9.72-2.712-2.712-6.004-3.561-9.72-3.748-3.83-.217-15.31-.217-19.14 0-3.706.176-6.998 1.025-9.72 3.737-2.722 2.712-3.56 6.004-3.747 9.72-.218 3.83-.218 15.31 0 19.14.176 3.717 1.025 7.008 3.747 9.72 2.722 2.713 6.004 3.562 9.72 3.748 3.83.217 15.31.217 19.14 0 3.716-.176 7.008-1.025 9.72-3.747 2.712-2.712 3.561-6.004 3.747-9.72.218-3.83.218-15.3 0-19.13Zm-4.948 23.24a7.829 7.829 0 0 1-4.41 4.409c-3.053 1.211-10.3.931-13.674.931-3.374 0-10.63.27-13.674-.931a7.829 7.829 0 0 1-4.41-4.41c-1.211-3.054-.932-10.3-.932-13.674 0-3.375-.269-10.631.932-13.675a7.829 7.829 0 0 1 4.41-4.41c3.054-1.21 10.3-.931 13.674-.931 3.375 0 10.631-.27 13.675.932a7.829 7.829 0 0 1 4.41 4.41c1.21 3.053.931 10.3.931 13.674 0 3.374.28 10.63-.932 13.674Z"/></svg>