<svg xmlns="http://www.w3.org/2000/svg" width="47" height="47" fill="none"><path fill="#CCD6F6" d="M43.375.313H3.615C1.793.313.312 1.813.312 3.655v39.688c0 1.843 1.48 3.343 3.303 3.343h39.76c1.822 0 3.313-1.5 3.313-3.343V3.656c0-1.843-1.491-3.344-3.313-3.344Zm-29.047 39.75H7.455V17.93h6.884v22.131h-.01Zm-3.436-25.155a3.987 3.987 0 0 1-3.986-3.985 3.987 3.987 0 0 1 3.986-3.986 3.994 3.994 0 0 1 3.985 3.986 3.98 3.98 0 0 1-3.985 3.985Zm29.202 25.154H33.22V29.297c0-2.567-.052-5.87-3.571-5.87-3.582 0-4.13 2.796-4.13 5.683v10.953h-6.874V17.93h6.594v3.022h.093c.921-1.738 3.168-3.57 6.511-3.57 6.957 0 8.25 4.585 8.25 10.547v12.133Z"/></svg>