<svg xmlns="http://www.w3.org/2000/svg" width="18" height="20" fill="none"><path fill="#CCD6F6" fill-rule="evenodd" d="M2.46 18c-.41-1.327-1.04-4.433.671-7.514 1.867-3.36 1.45-6.702 1-8.486h10.923c.41 1.327 1.04 4.433-.67 7.514-1.868 3.36-1.45 6.702-1 8.486H2.46ZM1.383 9.514c-2.147 3.864-1.275 7.701-.8 9.181C.85 19.531 1.625 20 2.407 20h11.58c1.095 0 1.754-1.085 1.468-2.016-.412-1.342-1.027-4.432.676-7.498 2.147-3.864 1.275-7.701.8-9.181C16.665.469 15.89 0 15.107 0H3.527C2.432 0 1.772 1.085 2.058 2.016c.412 1.342 1.028 4.432-.675 7.498ZM5.757 7a1 1 0 0 1 1-1h6a1 1 0 1 1 0 2h-6a1 1 0 0 1-1-1Zm0 3a1 1 0 0 0 0 2h3a1 1 0 0 0 0-2h-3Z" clip-rule="evenodd"/></svg>