<svg xmlns="http://www.w3.org/2000/svg" width="23" height="21" fill="none"><path stroke="#CCD6F6" stroke-linecap="round" stroke-linejoin="round" stroke-width="2" d="M16.02 1.528a3.71 3.71 0 0 1 0 6.333M22 20v-.633c0-2.365 0-3.547-.458-4.45a4.212 4.212 0 0 0-1.835-1.846M8.875 8.39a3.659 3.659 0 0 0 2.599-1.082 3.695 3.695 0 0 0 1.076-2.613 3.713 3.713 0 0 0-1.076-2.612A3.674 3.674 0 0 0 8.875 1c-.975 0-1.91.39-2.599 1.082a3.704 3.704 0 0 0 0 5.225 3.665 3.665 0 0 0 2.599 1.082ZM1 19.367V20h15.75v-.633c0-2.365 0-3.547-.458-4.45a4.212 4.212 0 0 0-1.835-1.846c-.899-.46-2.075-.46-4.427-.46H7.72c-2.352 0-3.528 0-4.427.46a4.211 4.211 0 0 0-1.835 1.845C1 15.82 1 17.002 1 19.366Z"/></svg>